# xmcd
#
# Track frame offsets: 
#        182
#        22575
#        41990
#        62612
#        85572
#        97460
#        130342
#        152520
#        170880
#        185565
#        203470
#
# Disc length: 3063 seconds
#
# Revision: 1
# Processed by: cddbd v1.5.1PL0 Copyright (c) Steve Scherf et al.
# Submitted via: ExactAudioCopy v0.90b4
#
DISCID=8d0bf50b
DTITLE=stéphane grappelli - it might as well be swing
DYEAR=1995
DGENRE=Jazz
TTITLE0=You Took Advantage Of Me
TTITLE1=Star Eyes
TTITLE2=Anything Goes
TTITLE3=Don´t Blame Me
TTITLE4=Moonlight In Vermont
TTITLE5=Caravan
TTITLE6=It Might As Well Be Spring
TTITLE7=Have You Met Miss Jones
TTITLE8=Love Song
TTITLE9=Sing Hallelujah
TTITLE10=I Didn´t Know What Time It Was
EXTD=YEAR: 1955
EXTT0=
EXTT1=
EXTT2=
EXTT3=
EXTT4=
EXTT5=
EXTT6=
EXTT7=
EXTT8=
EXTT9=
EXTT10=
PLAYORDER=
